<?xml version="1.0" standalone="no"?>
<!DOCTYPE svg PUBLIC "-//W3C//DTD SVG 20010904//EN"
 "http://www.w3.org/TR/2001/REC-SVG-20010904/DTD/svg10.dtd">
<svg version="1.0" xmlns="http://www.w3.org/2000/svg"
 width="1000.000000pt" height="1000.000000pt" viewBox="0 0 1000.000000 1000.000000"
 preserveAspectRatio="xMidYMid meet">
<metadata>
Created by potrace 1.11, written by Peter Selinger 2001-2013
</metadata>
<g transform="translate(0.000000,1000.000000) scale(0.100000,-0.100000)"
fill="#000000" stroke="none">
<path d="M8925 6064 c-17 -8 -40 -13 -52 -11 -12 2 -24 0 -26 -6 -1 -5 -18
-11 -37 -13 -19 -2 -42 -7 -52 -9 -9 -3 -19 -2 -22 4 -3 5 -18 7 -34 5 -15 -2
-47 -6 -72 -8 -64 -6 -118 -22 -139 -40 -17 -15 -20 -15 -44 4 -17 13 -28 17
-32 10 -4 -7 -19 -9 -35 -5 -18 4 -33 1 -43 -9 -18 -18 -34 -21 -39 -5 -10 29
-78 6 -78 -28 0 -7 -9 -13 -19 -13 -11 0 -23 -5 -26 -10 -3 -6 -17 -7 -30 -4
-12 3 -26 1 -29 -5 -8 -13 -156 -5 -170 9 -15 15 -35 12 -69 -12 -18 -13 -49
-23 -72 -24 -22 -1 -56 -5 -75 -9 -19 -4 -43 -6 -52 -6 -10 0 -20 -4 -23 -10
-4 -5 -19 -9 -34 -9 -15 0 -31 -3 -35 -7 -4 -4 -19 -8 -34 -9 -115 -6 -167
-19 -190 -47 -9 -10 -23 -12 -51 -7 -22 4 -45 3 -53 -1 -7 -4 -32 -5 -55 -2
-23 3 -50 2 -60 -2 -10 -5 -29 -9 -43 -11 -55 -4 -126 -6 -135 -3 -5 2 -20 -2
-32 -9 -18 -10 -24 -9 -32 5 -9 16 -12 16 -21 3 -5 -8 -10 -10 -10 -5 0 20
-69 48 -113 46 -130 -5 -138 -4 -131 13 3 7 -2 16 -11 20 -9 3 -14 10 -11 15
3 5 -3 7 -14 4 -29 -8 -92 6 -84 18 4 7 -1 9 -12 7 -11 -3 -31 1 -45 8 -15 7
-29 10 -32 7 -4 -3 -13 -1 -20 5 -29 25 -217 7 -217 -20 0 -5 -5 -6 -10 -3 -6
4 -7 11 -4 17 4 6 3 8 -3 5 -5 -4 -19 3 -31 13 -27 25 -49 25 -87 0 -32 -21
-70 -26 -80 -11 -12 20 -66 23 -86 5 -10 -9 -19 -12 -19 -6 0 6 -22 9 -62 6
-63 -4 -124 -5 -175 -3 -33 2 -102 -9 -116 -18 -6 -3 -42 -7 -81 -8 -51 -1
-81 -8 -108 -23 l-36 -21 -6 24 c-5 18 -11 22 -28 17 -12 -3 -30 -12 -40 -21
-10 -9 -22 -16 -26 -17 -4 0 -25 -4 -47 -9 -58 -13 -84 -12 -137 1 -26 7 -49
10 -51 7 -7 -6 -87 -13 -188 -15 l-86 -2 -41 -100 c-33 -80 -39 -103 -29 -115
13 -15 13 -15 -8 -48 -8 -12 -16 -47 -18 -77 -4 -65 -17 -85 -53 -78 -15 3
-29 -1 -34 -8 -6 -9 -13 -9 -28 -1 -14 7 -23 8 -27 1 -5 -9 -73 -12 -200 -9
-11 1 -27 0 -35 0 -8 -1 -35 -2 -60 -4 -52 -3 -223 8 -259 17 -14 3 -29 2 -35
-3 -7 -6 -41 -4 -85 3 -42 7 -93 10 -120 6 -59 -10 -234 -4 -289 8 -28 7 -44
7 -48 0 -4 -6 -10 -5 -15 3 -7 11 -9 9 -10 -6 0 -11 -3 -15 -5 -8 -4 8 -13 9
-30 3 -15 -6 -24 -6 -24 0 0 5 -7 7 -15 4 -8 -4 -15 -1 -15 6 0 13 -5 12 -112
-9 -43 -9 -63 -9 -79 0 -16 8 -20 8 -14 -1 6 -9 3 -9 -13 -1 -13 7 -23 7 -27
2 -3 -6 -20 -8 -37 -6 -18 2 -36 -1 -39 -7 -6 -9 -12 -8 -23 1 -8 7 -21 9 -28
5 -7 -4 -39 -8 -71 -9 -39 -1 -64 -7 -71 -16 -8 -11 -30 -14 -81 -13 -38 1
-75 -2 -80 -7 -6 -4 -20 -8 -30 -8 -11 0 -40 -3 -64 -7 -37 -6 -46 -4 -59 12
-10 14 -16 15 -19 6 -4 -9 -8 -10 -18 -2 -9 8 -15 8 -20 0 -3 -6 -10 -8 -15
-5 -18 11 -100 12 -100 1 0 -8 -2 -8 -8 0 -4 6 -47 11 -107 12 -55 1 -111 2
-125 3 -36 2 -132 -8 -153 -16 -9 -4 -17 -12 -17 -19 0 -6 -4 -5 -9 3 -6 8
-14 10 -22 5 -8 -5 -30 -9 -49 -11 -45 -2 -68 -7 -76 -16 -4 -4 -13 -2 -21 5
-18 15 -84 14 -122 -1 -37 -16 -97 -8 -153 19 -24 11 -68 23 -99 25 -65 5
-109 20 -109 36 0 6 -9 9 -20 6 -11 -3 -23 -1 -26 4 -3 5 -10 6 -16 3 -6 -4
-36 -6 -66 -5 -42 1 -60 -3 -76 -17 -12 -11 -28 -20 -36 -21 -12 -1 -49 -5
-82 -10 -4 -1 -14 -8 -22 -17 -9 -8 -25 -16 -36 -17 -11 -1 -20 -5 -20 -10 0
-4 -5 -5 -11 -1 -6 3 -25 -4 -42 -17 -30 -22 -36 -23 -232 -20 -110 2 -228 3
-263 4 -64 1 -91 -12 -96 -46 -1 -8 -7 -21 -12 -28 -6 -8 -16 -33 -21 -56 -8
-33 -8 -44 5 -56 8 -9 16 -39 19 -69 2 -29 7 -65 12 -79 6 -17 5 -31 0 -36 -6
-6 -11 -21 -12 -34 -1 -13 -11 -39 -24 -57 -18 -27 -20 -38 -12 -59 5 -15 8
-32 5 -40 -3 -7 0 -13 7 -13 8 -1 7 -5 -3 -13 -16 -12 -15 -43 1 -62 11 -14 2
-52 -22 -97 -5 -10 -9 -26 -9 -35 1 -16 2 -16 16 2 15 19 16 18 11 -20 -5 -43
-9 -59 -22 -89 -6 -13 -5 -21 3 -24 6 -2 9 -9 6 -17 -3 -7 0 -39 6 -72 6 -32
13 -87 14 -123 2 -36 6 -74 8 -85 6 -25 83 -85 108 -85 11 0 24 -8 29 -17 6
-10 11 -13 11 -7 0 7 19 10 51 9 35 -1 52 2 56 11 7 20 27 17 48 -6 18 -20 45
-27 45 -12 0 5 24 9 53 9 69 2 69 2 63 11 -3 5 17 5 44 2 50 -6 89 2 102 23 6
9 8 8 8 -2 0 -9 4 -10 12 -4 7 6 47 9 88 7 41 -1 77 1 80 4 10 14 50 32 71 32
11 0 29 5 39 10 13 7 21 7 26 -1 3 -6 9 -7 13 -3 11 15 50 34 70 34 11 0 22 8
25 18 6 18 59 48 63 35 2 -5 40 -7 84 -5 47 1 87 -2 95 -8 8 -8 14 -8 19 0 4
6 13 9 21 6 8 -3 14 0 14 7 0 8 3 7 9 -2 8 -12 17 -13 43 -5 18 6 63 10 101
10 37 -1 67 2 67 6 0 4 26 -2 58 -13 31 -11 66 -22 77 -24 11 -2 41 -10 68
-19 26 -8 47 -12 47 -9 0 3 9 -2 20 -12 11 -10 20 -14 20 -9 0 5 10 -6 21 -24
13 -20 26 -30 33 -25 10 7 32 9 46 3 34 -12 48 -8 53 18 5 22 17 33 59 51 29
13 60 27 70 32 9 4 30 4 47 -1 18 -5 33 -5 36 1 4 5 18 3 33 -5 31 -15 49 -11
75 15 12 13 29 17 60 15 23 -1 48 2 55 7 7 6 46 12 85 13 80 2 127 9 174 25
17 5 51 10 75 10 24 -1 54 0 68 0 34 1 79 -7 113 -20 17 -7 36 -7 51 -1 34 13
141 -1 181 -24 21 -11 27 -13 59 -15 11 -1 16 -6 13 -15 -7 -18 20 -56 39 -56
8 0 14 5 14 10 0 7 6 7 18 1 10 -5 24 -6 31 -2 7 5 38 9 70 10 75 2 101 7 115
25 7 9 37 17 76 21 36 4 79 9 95 11 87 13 145 16 145 7 0 -6 13 -13 29 -16 16
-4 41 -18 56 -33 25 -25 27 -25 46 -8 11 10 19 12 19 6 0 -7 5 -12 10 -12 6 0
10 7 10 15 0 8 5 15 11 15 5 0 7 6 3 13 -6 8 -3 8 9 -1 14 -12 20 -10 43 15
14 15 30 29 35 29 5 1 11 3 14 4 5 2 32 6 60 9 8 0 15 8 15 17 0 8 5 12 10 9
6 -3 10 -1 10 5 0 6 4 8 10 5 5 -3 7 0 4 8 -4 12 5 14 43 12 37 -1 61 5 103
27 40 22 64 28 87 24 24 -3 35 0 43 12 8 15 9 15 10 -3 0 -18 1 -18 16 3 11
16 19 20 28 13 6 -5 24 -12 40 -15 15 -3 47 -16 71 -31 42 -24 45 -24 54 -7 6
11 6 23 2 28 -5 5 -13 23 -19 41 -9 27 -8 36 6 53 l17 21 45 -24 c25 -13 51
-22 58 -20 6 3 12 -1 12 -7 0 -10 3 -10 15 0 11 9 20 8 45 -10 16 -12 30 -18
30 -14 0 3 7 1 14 -6 8 -6 30 -13 48 -14 52 -4 108 -17 114 -27 3 -5 12 -2 20
6 9 8 19 13 24 10 5 -3 10 1 13 7 3 9 7 8 12 -4 6 -15 9 -15 39 3 25 14 58 20
132 23 87 4 101 7 116 26 10 12 18 20 18 17 0 -3 16 1 36 9 20 8 61 20 92 25
31 6 66 16 77 22 32 17 47 17 74 -2 20 -14 32 -15 56 -8 45 15 60 18 63 17 2
-1 13 5 26 13 14 10 28 12 37 7 10 -7 17 -2 26 13 7 12 12 16 13 10 0 -9 11
-7 35 7 19 10 37 15 40 11 2 -5 28 -7 57 -4 29 3 61 5 71 5 9 -1 17 4 17 9 0
6 5 7 10 4 6 -4 47 -8 91 -10 45 -2 84 -6 87 -9 2 -3 12 -2 21 3 16 8 42 7
131 -4 60 -8 87 -7 109 5 14 7 22 6 31 -5 17 -20 33 -19 54 3 21 24 85 43 117
36 45 -11 64 -11 76 -2 7 6 25 3 47 -6 32 -13 36 -13 36 0 0 9 6 14 13 11 6
-2 11 -10 9 -16 -1 -6 2 -11 8 -11 5 0 10 7 10 15 0 20 19 19 42 -2 14 -13 18
-13 18 -2 0 11 2 11 10 -1 9 -13 10 -13 10 0 0 8 6 4 13 -10 9 -18 21 -25 43
-25 27 0 30 3 26 24 l-5 24 32 -24 c21 -15 28 -26 21 -33 -16 -16 -12 -32 10
-33 11 -1 20 3 20 8 0 6 5 7 10 4 6 -3 10 1 10 9 0 25 28 19 62 -13 35 -33 81
-34 109 -1 15 17 16 17 27 0 8 -13 30 -20 84 -26 40 -4 77 -7 82 -5 4 1 19 -5
33 -14 14 -10 31 -14 41 -9 9 4 28 9 41 11 14 2 31 13 39 24 12 17 23 20 73
17 41 -3 59 0 59 8 0 20 24 23 43 6 14 -13 22 -14 36 -5 14 9 22 8 33 -4 13
-12 20 -13 37 -3 17 8 31 8 56 0 19 -6 47 -10 62 -9 40 4 132 -11 139 -22 4
-6 11 -6 19 1 7 6 37 12 67 13 54 3 64 8 120 60 l30 27 -7 -32 c-12 -52 -22
-75 -45 -96 -32 -30 -16 -96 27 -113 14 -5 27 -18 30 -29 3 -11 9 -17 14 -14
5 3 9 1 9 -5 0 -5 14 -12 30 -16 25 -5 30 -11 24 -27 -4 -14 0 -21 15 -25 12
-3 21 -12 21 -19 0 -9 12 -14 33 -14 20 0 39 -8 50 -20 9 -11 31 -23 48 -27
18 -3 34 -14 36 -24 6 -20 49 -34 66 -21 7 5 39 5 77 0 36 -4 76 -8 88 -8 13
0 31 -4 40 -9 9 -5 26 -5 39 0 15 5 31 3 50 -6 15 -8 37 -15 49 -15 11 0 24
-3 28 -7 4 -4 24 -8 44 -8 20 -1 51 -4 67 -8 17 -4 24 -4 18 -1 -17 7 -17 24
0 24 7 0 20 -11 30 -24 11 -15 26 -23 38 -21 10 2 21 -1 25 -6 4 -6 11 -6 20
2 12 10 13 8 8 -7 -6 -17 -5 -18 7 -3 20 24 77 29 119 11 19 -8 44 -16 55 -18
11 -1 39 -7 63 -12 23 -6 44 -7 47 -3 14 24 35 190 24 197 -8 4 0 43 11 59 25
35 8 133 -28 165 -10 8 -18 26 -19 39 -1 13 -6 27 -11 30 -12 8 -9 40 6 69 11
18 10 22 -1 22 -8 0 -20 7 -27 15 -7 8 -16 13 -20 10 -4 -2 -16 5 -28 15 -12
11 -25 20 -30 20 -5 0 -17 9 -27 20 -10 11 -21 18 -25 15 -4 -2 -17 7 -30 20
-13 13 -26 22 -30 20 -5 -3 -10 2 -14 10 -3 8 -12 15 -19 15 -8 0 -20 7 -27
15 -7 8 -27 15 -44 15 -17 0 -39 7 -49 14 -10 8 -27 11 -39 8 -31 -8 -18 18
18 38 30 16 86 19 116 6 9 -4 23 -4 30 0 7 5 21 7 31 6 9 -2 17 2 17 8 0 6 4
9 9 6 12 -8 41 38 41 64 0 11 4 20 8 20 5 0 15 19 22 43 8 23 29 64 47 92 36
54 41 75 18 75 -10 0 -15 10 -15 27 0 14 -11 40 -23 57 -13 17 -23 42 -22 56
2 14 -2 31 -8 38 -6 7 -11 57 -12 110 -1 53 -3 97 -4 97 -1 0 -3 30 -5 67 -2
48 -8 73 -20 87 -10 11 -15 24 -12 30 4 5 2 12 -3 15 -5 3 -14 28 -21 55 -6
28 -18 55 -26 62 -8 7 -14 30 -14 55 0 24 -4 44 -10 44 -5 0 -10 6 -10 14 0 8
-8 22 -17 32 -9 9 -19 26 -20 37 -2 12 -8 24 -14 28 -6 3 -10 8 -8 10 1 2 -1
15 -5 27 -6 19 -13 22 -29 17 -12 -3 -45 -9 -74 -12 -41 -4 -59 -1 -85 15 -21
12 -48 19 -73 18 -22 -2 -53 1 -69 6 -18 4 -34 4 -42 -3 -14 -12 -144 -21
-144 -10 0 4 -15 7 -32 6 -18 -2 -37 1 -43 5 -23 17 -62 19 -90 4z m-1390
-1613 c-3 -6 -11 -11 -17 -11 -6 0 -6 6 2 15 14 17 26 13 15 -4z"/>
</g>
</svg>
